<?xml version="1.0" encoding="utf-8"?>
<!-- Generator: Adobe Illustrator 18.0.0, SVG Export Plug-In . SVG Version: 6.00 Build 0)  -->
<!DOCTYPE svg PUBLIC "-//W3C//DTD SVG 1.1//EN" "http://www.w3.org/Graphics/SVG/1.1/DTD/svg11.dtd">
<svg version="1.1" id="Layer_1" xmlns="http://www.w3.org/2000/svg" xmlns:xlink="http://www.w3.org/1999/xlink" x="0px" y="0px"
	 viewBox="0 0 169 21.7" enable-background="new 0 0 169 21.7" xml:space="preserve">
<g>
	<path fill-rule="evenodd" clip-rule="evenodd" fill="#0093DD" d="M16.1,18.5c-4.6-2.4-4.9-5,0.2-7.8c4.8-2.5,5.1-5.2,0.5-7.9l9.2,0
		v15.7L16.1,18.5z"/>
	<path fill-rule="evenodd" clip-rule="evenodd" fill="#004282" d="M12.4,18.5c-4.6-2.4-4.7-5,0.5-7.8c4.8-2.5,4.8-5.2,0.2-7.9H3.2
		v15.7H12.4z"/>
</g>
<path fill-rule="evenodd" clip-rule="evenodd" fill="#1F1A17" d="M47.1,18.5h-4.2l-5.3-7.3c-0.4,0-0.7,0-0.9,0c-0.1,0-0.2,0-0.3,0
	c-0.1,0-0.2,0-0.4,0v4.6c0,1,0.1,1.6,0.3,1.8c0.3,0.3,0.7,0.5,1.3,0.5h0.6v0.4h-6.7v-0.4h0.6c0.7,0,1.1-0.2,1.4-0.6
	c0.2-0.2,0.2-0.8,0.2-1.7V5.7c0-1-0.1-1.6-0.3-1.8c-0.3-0.3-0.8-0.5-1.3-0.5h-0.6V2.9h5.7c1.7,0,2.9,0.1,3.6,0.4
	c0.8,0.2,1.5,0.7,2,1.3C43.5,5.3,43.8,6,43.8,7c0,0.9-0.3,1.8-0.9,2.5c-0.6,0.7-1.6,1.2-2.9,1.5l3.2,4.5c0.7,1.1,1.4,1.7,1.9,2.1
	c0.5,0.3,1.2,0.5,2.1,0.6V18.5z M36,10.5c0.2,0,0.3,0,0.4,0c0.1,0,0.2,0,0.3,0c1.5,0,2.6-0.3,3.4-1c0.7-0.6,1.1-1.4,1.1-2.5
	c0-1-0.3-1.8-0.9-2.4c-0.6-0.6-1.4-0.9-2.4-0.9c-0.4,0-1,0.1-1.8,0.2V10.5z M55.9,11h3.6v0.3c-0.5,0-0.9,0.1-1.1,0.3
	c-0.2,0.2-0.6,0.8-1.1,1.7c-0.5,0.9-1.1,1.7-1.7,2.6c0.5,0.6,1,1,1.4,1.2c0.4,0.2,0.8,0.4,1.2,0.4c0.4,0,0.7-0.1,1-0.3
	c0.3-0.2,0.5-0.5,0.6-0.9l0.3,0.2c-0.2,0.8-0.5,1.4-1,1.8c-0.5,0.4-1,0.6-1.6,0.6c-0.5,0-1-0.1-1.4-0.4c-0.5-0.2-1-0.7-1.6-1.3
	c-0.7,0.6-1.4,1.1-1.9,1.3c-0.6,0.2-1.2,0.4-1.8,0.4c-1,0-1.7-0.3-2.3-0.7c-0.6-0.5-0.8-1.1-0.8-1.8c0-0.7,0.2-1.4,0.7-2.1
	c0.5-0.7,1.4-1.4,2.8-2.2c-0.3-0.6-0.4-1.1-0.5-1.4c-0.1-0.4-0.1-0.7-0.1-1.1c0-1,0.4-1.7,1.1-2.2c0.6-0.4,1.2-0.6,1.9-0.6
	c0.7,0,1.2,0.2,1.7,0.6c0.4,0.4,0.7,0.9,0.7,1.5c0,0.6-0.2,1.2-0.6,1.6c-0.4,0.5-1.1,1-2.2,1.5c0.7,1.3,1.5,2.5,2.3,3.6
	c1-1.2,1.5-2.2,1.5-3c0-0.3-0.1-0.5-0.3-0.7c-0.1-0.2-0.3-0.2-0.5-0.3V11z M52.6,11.2c0.7-0.3,1.3-0.7,1.6-1.1
	c0.3-0.5,0.5-0.9,0.5-1.4c0-0.4-0.1-0.8-0.4-1c-0.3-0.3-0.6-0.4-1-0.4c-0.5,0-0.9,0.2-1.1,0.5c-0.3,0.4-0.4,0.7-0.4,1
	c0,0.3,0.1,0.6,0.2,1C52.1,10,52.3,10.5,52.6,11.2 M53.9,16.6c-0.8-1.1-1.3-1.8-1.6-2.3c-0.3-0.5-0.6-1.1-1-1.8
	c-0.7,0.4-1.2,0.8-1.5,1.3c-0.3,0.5-0.5,1-0.5,1.5c0,0.7,0.2,1.2,0.6,1.7c0.4,0.5,0.9,0.7,1.6,0.7c0.4,0,0.7-0.1,1.1-0.2
	C52.9,17.4,53.3,17.1,53.9,16.6 M76.5,18.5h-4.1l-5.3-7.3c-0.4,0-0.7,0-1,0c-0.1,0-0.2,0-0.3,0c-0.1,0-0.2,0-0.4,0v4.6
	c0,1,0.1,1.6,0.3,1.8c0.3,0.3,0.7,0.5,1.3,0.5h0.6v0.4H61v-0.4h0.6c0.7,0,1.1-0.2,1.4-0.6c0.2-0.2,0.2-0.8,0.2-1.7V5.7
	c0-1-0.1-1.6-0.3-1.8c-0.3-0.3-0.7-0.5-1.3-0.5H61V2.9h5.7c1.7,0,2.9,0.1,3.7,0.4c0.8,0.2,1.4,0.7,2,1.3C72.9,5.3,73.1,6,73.1,7
	c0,0.9-0.3,1.8-0.9,2.5c-0.6,0.7-1.6,1.2-2.9,1.5l3.2,4.5c0.7,1.1,1.4,1.7,1.9,2.1c0.5,0.3,1.2,0.5,2.1,0.6V18.5z M65.4,10.5
	c0.1,0,0.3,0,0.4,0c0.1,0,0.2,0,0.3,0c1.5,0,2.6-0.3,3.4-1c0.7-0.6,1.1-1.4,1.1-2.5c0-1-0.3-1.8-0.9-2.4c-0.6-0.6-1.4-0.9-2.4-0.9
	c-0.5,0-1.1,0.1-1.8,0.2V10.5z M92.9,2.6V8h-0.4c-0.1-1-0.4-1.9-0.7-2.5c-0.4-0.6-0.9-1.1-1.6-1.5c-0.6-0.4-1.3-0.5-2.1-0.5
	c-0.8,0-1.4,0.2-1.9,0.7c-0.5,0.5-0.8,1.1-0.8,1.7c0,0.5,0.2,0.9,0.5,1.3c0.5,0.6,1.6,1.4,3.4,2.3c1.4,0.8,2.5,1.4,3,1.8
	c0.5,0.4,0.9,0.9,1.2,1.5c0.3,0.6,0.4,1.1,0.4,1.8c0,1.2-0.4,2.2-1.3,3.1c-0.9,0.8-2.1,1.3-3.5,1.3c-0.4,0-0.9,0-1.3-0.1
	c-0.2,0-0.7-0.2-1.4-0.4c-0.8-0.2-1.2-0.4-1.4-0.4c-0.2,0-0.3,0.1-0.4,0.2c-0.1,0.1-0.2,0.3-0.2,0.7h-0.4v-5.3h0.4
	c0.2,1.1,0.5,1.9,0.8,2.5c0.3,0.5,0.9,1,1.5,1.4c0.7,0.4,1.4,0.5,2.3,0.5c0.9,0,1.7-0.2,2.2-0.7c0.6-0.5,0.9-1.1,0.9-1.8
	c0-0.4-0.1-0.8-0.3-1.1c-0.2-0.4-0.6-0.7-1-1.1c-0.3-0.2-1.1-0.7-2.5-1.5c-1.3-0.7-2.2-1.3-2.8-1.8c-0.6-0.5-1-1-1.3-1.5
	c-0.3-0.6-0.5-1.1-0.5-1.8c0-1.1,0.4-2.1,1.3-2.9c0.9-0.8,1.9-1.2,3.2-1.2c0.9,0,1.7,0.2,2.6,0.6c0.4,0.2,0.7,0.3,0.9,0.3
	c0.2,0,0.4-0.1,0.5-0.2c0.1-0.1,0.2-0.4,0.3-0.7H92.9z M101.1,7.7c1.6,0,2.9,0.6,3.8,1.8c0.9,1,1.3,2.2,1.3,3.6
	c0,0.9-0.2,1.9-0.7,2.9c-0.5,1-1.1,1.7-1.9,2.2c-0.8,0.5-1.6,0.7-2.7,0.7c-1.6,0-2.9-0.6-3.8-1.9c-0.8-1.1-1.2-2.3-1.2-3.6
	c0-1,0.2-2,0.7-2.9c0.5-1,1.1-1.7,1.9-2.1C99.4,7.9,100.2,7.7,101.1,7.7 M100.7,8.4c-0.4,0-0.8,0.1-1.2,0.4c-0.4,0.2-0.7,0.7-1,1.3
	c-0.3,0.6-0.4,1.4-0.4,2.4c0,1.5,0.3,2.8,1,4c0.6,1.1,1.4,1.6,2.4,1.6c0.8,0,1.4-0.3,1.9-0.9c0.5-0.6,0.7-1.7,0.7-3.2
	c0-1.9-0.4-3.3-1.2-4.4C102.3,8.8,101.5,8.4,100.7,8.4 M111.7,15.8c0,1,0.1,1.6,0.4,1.8c0.3,0.3,0.7,0.5,1.1,0.5h0.9v0.4h-6.3v-0.4
	h0.5c0.4,0,0.6-0.1,0.9-0.2c0.2-0.2,0.4-0.4,0.5-0.6c0.1-0.3,0.1-0.8,0.1-1.5v-7h-2.1V8h2.1V7.7c0-1.1,0.2-1.9,0.5-2.7
	c0.3-0.7,0.8-1.3,1.5-1.8c0.7-0.5,1.5-0.7,2.3-0.7c0.8,0,1.6,0.2,2.2,0.8c0.4,0.3,0.7,0.7,0.7,1.1c0,0.2-0.1,0.5-0.3,0.7
	c-0.2,0.2-0.4,0.3-0.6,0.3c-0.2,0-0.4-0.1-0.5-0.2c-0.2-0.1-0.5-0.4-0.8-0.8c-0.3-0.4-0.5-0.7-0.8-0.8c-0.2-0.1-0.5-0.2-0.8-0.2
	c-0.3,0-0.6,0.1-0.9,0.3c-0.2,0.2-0.4,0.5-0.6,0.9c-0.1,0.4-0.2,1.4-0.2,3.1V8h2.7v0.8h-2.7V15.8z M118.5,4.5V8h2.5v0.8h-2.5v6.8
	c0,0.7,0.1,1.2,0.3,1.4c0.2,0.2,0.5,0.4,0.8,0.4c0.3,0,0.5-0.1,0.7-0.2c0.2-0.2,0.4-0.4,0.5-0.7h0.4c-0.3,0.7-0.6,1.3-1.1,1.7
	c-0.5,0.4-1,0.6-1.5,0.6c-0.4,0-0.7-0.1-1-0.3c-0.3-0.2-0.6-0.5-0.7-0.8c-0.2-0.4-0.2-0.9-0.2-1.7V8.8H115V8.4
	c0.5-0.2,0.9-0.5,1.3-0.9c0.4-0.4,0.8-0.9,1.2-1.4c0.2-0.3,0.4-0.8,0.7-1.6H118.5z M121.4,8h4.4v0.4c-0.4,0-0.7,0.1-0.8,0.2
	c-0.1,0.1-0.2,0.3-0.2,0.5c0,0.2,0.1,0.5,0.2,0.9l2.3,6.1l2.3-5L129,9.6c-0.2-0.5-0.4-0.8-0.7-0.9c-0.2-0.1-0.5-0.2-0.9-0.2V8h5v0.4
	c-0.6,0-1,0.1-1.2,0.3c-0.2,0.1-0.2,0.3-0.2,0.6c0,0.2,0,0.3,0.1,0.5l2.4,6.1l2.2-5.9c0.2-0.4,0.2-0.8,0.2-1c0-0.1-0.1-0.3-0.2-0.4
	c-0.2-0.1-0.5-0.2-0.9-0.2V8h3.3v0.4c-0.6,0.1-1.1,0.5-1.4,1.4l-3.5,9.1h-0.5l-2.6-6.7l-3.1,6.7h-0.4l-3.4-8.8
	c-0.2-0.6-0.4-1-0.6-1.1c-0.2-0.2-0.6-0.3-1.1-0.4V8z M144.9,17c-1.1,0.8-1.7,1.3-2,1.4c-0.4,0.2-0.9,0.3-1.4,0.3
	c-0.7,0-1.3-0.3-1.8-0.7c-0.5-0.5-0.7-1.1-0.7-1.9c0-0.6,0.1-1,0.4-1.4c0.3-0.5,0.9-1,1.6-1.4c0.8-0.5,2.1-1.1,3.9-1.7v-0.4
	c0-1-0.2-1.8-0.5-2.2c-0.3-0.4-0.8-0.6-1.4-0.6c-0.5,0-0.9,0.1-1.2,0.4c-0.3,0.3-0.4,0.5-0.4,0.9l0,0.7c0,0.3-0.1,0.6-0.3,0.8
	c-0.2,0.2-0.4,0.3-0.7,0.3c-0.3,0-0.5-0.1-0.7-0.3c-0.2-0.2-0.3-0.5-0.3-0.8c0-0.7,0.3-1.3,1-1.8c0.7-0.6,1.6-0.8,2.8-0.8
	c0.9,0,1.7,0.2,2.3,0.5c0.5,0.2,0.8,0.6,1,1.1c0.1,0.3,0.2,1,0.2,2v3.6c0,1,0,1.7,0.1,1.9c0,0.2,0.1,0.4,0.2,0.4
	c0.1,0.1,0.2,0.1,0.3,0.1c0.1,0,0.2,0,0.3-0.1c0.2-0.1,0.5-0.4,0.9-0.8V17c-0.8,1.1-1.6,1.7-2.4,1.7c-0.4,0-0.7-0.1-0.9-0.4
	C145.1,18.1,145,17.6,144.9,17 M144.9,16.3v-4.1c-1.1,0.5-1.9,0.8-2.2,1c-0.6,0.3-1.1,0.7-1.3,1c-0.3,0.4-0.4,0.8-0.4,1.2
	c0,0.6,0.2,1,0.5,1.4c0.3,0.4,0.7,0.5,1.2,0.5C143.3,17.4,144,17,144.9,16.3 M152.4,7.7v2.4c0.9-1.6,1.8-2.4,2.7-2.4
	c0.4,0,0.8,0.1,1.1,0.4c0.3,0.3,0.4,0.6,0.4,0.9c0,0.3-0.1,0.5-0.3,0.8c-0.2,0.2-0.4,0.3-0.7,0.3c-0.3,0-0.6-0.1-0.9-0.4
	c-0.3-0.3-0.6-0.4-0.7-0.4c-0.1,0-0.3,0.1-0.4,0.2c-0.3,0.3-0.7,0.8-1.1,1.6v5.1c0,0.6,0.1,1,0.2,1.3c0.1,0.2,0.3,0.4,0.5,0.5
	c0.3,0.1,0.6,0.2,1.1,0.2v0.4h-5.4v-0.4c0.6,0,1-0.1,1.2-0.3c0.2-0.1,0.3-0.3,0.4-0.6c0-0.1,0.1-0.5,0.1-1.1v-4.1
	c0-1.2,0-1.9-0.1-2.2c0-0.3-0.1-0.4-0.3-0.5c-0.1-0.1-0.3-0.2-0.5-0.2c-0.2,0-0.5,0.1-0.8,0.2L148.8,9l3.2-1.3H152.4z M159,11.9
	c0,1.6,0.4,2.8,1.2,3.7c0.8,0.9,1.6,1.4,2.7,1.4c0.7,0,1.3-0.2,1.8-0.6c0.5-0.4,0.9-1.1,1.3-2l0.4,0.2c-0.2,1.1-0.6,2-1.4,2.9
	c-0.8,0.9-1.7,1.3-2.9,1.3c-1.2,0-2.3-0.5-3.2-1.5c-0.9-1-1.3-2.3-1.3-4c0-1.8,0.4-3.2,1.4-4.2c0.9-1,2.1-1.5,3.5-1.5
	c1.2,0,2.2,0.4,2.9,1.2c0.8,0.8,1.2,1.8,1.2,3.1H159z M159,11.3h4.9c0-0.7-0.1-1.1-0.2-1.4c-0.2-0.4-0.5-0.8-0.9-1
	c-0.4-0.2-0.8-0.4-1.2-0.4c-0.6,0-1.2,0.2-1.7,0.7C159.4,9.7,159.1,10.4,159,11.3"/>
</svg>
